<?xml version="1.0" encoding="utf-8"?>
<svg xmlns="http://www.w3.org/2000/svg" version="1.1"  xmlns:xlink="http://www.w3.org/1999/xlink" width="1000" height="800" viewBox="0 0 2000 2000">

<circle cx="390" cy="130" r="2" fill="red" />
<circle cx="360" cy="150" r="2" fill="red" />
<circle cx="430" cy="140" r="2" fill="red" />
<circle cx="400" cy="150" r="2" fill="red" />
<circle cx="370" cy="170" r="2" fill="red" />
<circle cx="440" cy="160" r="2" fill="red" />
<circle cx="460" cy="210" r="2" fill="red" />
<circle cx="450" cy="200" r="2" fill="red" />
<circle cx="460" cy="220" r="2" fill="red" />
<circle cx="430" cy="220" r="2" fill="red" />
<circle cx="470" cy="230" r="2" fill="red" />
<circle cx="400" cy="210" r="2" fill="red" />
<circle cx="410" cy="230" r="2" fill="red" />
<circle cx="380" cy="230" r="2" fill="red" />
<circle cx="420" cy="240" r="2" fill="red" />
<circle cx="400" cy="220" r="2" fill="red" />
<circle cx="370" cy="220" r="2" fill="red" />
<circle cx="410" cy="230" r="2" fill="red" />
<circle cx="380" cy="240" r="2" fill="red" />
<circle cx="420" cy="250" r="2" fill="red" />
<circle cx="390" cy="250" r="2" fill="red" />
<circle cx="390" cy="210" r="2" fill="red" />
<circle cx="380" cy="200" r="2" fill="red" />
<circle cx="390" cy="220" r="2" fill="red" />
<circle cx="360" cy="220" r="2" fill="red" />
<circle cx="430" cy="210" r="2" fill="red" />
<circle cx="400" cy="230" r="2" fill="red" />
<circle cx="410" cy="160" r="2" fill="red" />
<circle cx="420" cy="180" r="2" fill="red" />
<circle cx="390" cy="180" r="2" fill="red" />
<circle cx="460" cy="170" r="2" fill="red" />
<circle cx="430" cy="190" r="2" fill="red" />
<circle cx="380" cy="170" r="2" fill="red" />
<circle cx="450" cy="160" r="2" fill="red" />
<circle cx="420" cy="180" r="2" fill="red" />
<circle cx="390" cy="190" r="2" fill="red" />
<circle cx="460" cy="180" r="2" fill="red" />
<circle cx="430" cy="200" r="2" fill="red" />
<circle cx="430" cy="180" r="2" fill="red" />
<circle cx="400" cy="200" r="2" fill="red" />
<circle cx="470" cy="190" r="2" fill="red" />
<circle cx="330" cy="210" r="2" fill="red" />
<circle cx="340" cy="230" r="2" fill="red" />
<circle cx="310" cy="230" r="2" fill="red" />
<circle cx="380" cy="220" r="2" fill="red" />
<circle cx="350" cy="240" r="2" fill="red" />
<circle cx="330" cy="220" r="2" fill="red" />
<circle cx="300" cy="220" r="2" fill="red" />
<circle cx="370" cy="210" r="2" fill="red" />
<circle cx="340" cy="230" r="2" fill="red" />
<circle cx="380" cy="230" r="2" fill="red" />
<circle cx="350" cy="250" r="2" fill="red" />
<circle cx="350" cy="230" r="2" fill="red" />
<circle cx="320" cy="250" r="2" fill="red" />
<circle cx="390" cy="240" r="2" fill="red" />
<circle cx="360" cy="180" r="2" fill="red" />
<circle cx="330" cy="180" r="2" fill="red" />
<circle cx="400" cy="170" r="2" fill="red" />
<circle cx="340" cy="200" r="2" fill="red" />
<circle cx="410" cy="190" r="2" fill="red" />
<circle cx="380" cy="210" r="2" fill="red" />
<circle cx="380" cy="190" r="2" fill="red" />
<circle cx="350" cy="210" r="2" fill="red" />
<circle cx="420" cy="200" r="2" fill="red" />
<circle cx="330" cy="190" r="2" fill="red" />
<circle cx="400" cy="180" r="2" fill="red" />
<circle cx="370" cy="200" r="2" fill="red" />
<circle cx="370" cy="180" r="2" fill="red" />
<circle cx="340" cy="200" r="2" fill="red" />
<circle cx="410" cy="190" r="2" fill="red" />
<circle cx="380" cy="200" r="2" fill="red" />
<circle cx="350" cy="220" r="2" fill="red" />
<circle cx="420" cy="210" r="2" fill="red" />
<circle cx="420" cy="190" r="2" fill="red" />
<circle cx="410" cy="180" r="2" fill="red" />
<circle cx="420" cy="200" r="2" fill="red" />
<circle cx="390" cy="200" r="2" fill="red" />
<circle cx="430" cy="210" r="2" fill="red" />
<circle cx="440" cy="140" r="2" fill="red" />
<circle cx="450" cy="160" r="2" fill="red" />
<circle cx="420" cy="160" r="2" fill="red" />
<circle cx="460" cy="170" r="2" fill="red" />
<circle cx="410" cy="150" r="2" fill="red" />
<circle cx="450" cy="160" r="2" fill="red" />
<circle cx="420" cy="170" r="2" fill="red" />
<circle cx="460" cy="180" r="2" fill="red" />
<circle cx="430" cy="180" r="2" fill="red" />
<circle cx="360" cy="190" r="2" fill="red" />
<circle cx="370" cy="210" r="2" fill="red" />
<circle cx="340" cy="210" r="2" fill="red" />
<circle cx="380" cy="220" r="2" fill="red" />
<circle cx="360" cy="200" r="2" fill="red" />
<circle cx="330" cy="200" r="2" fill="red" />
<circle cx="370" cy="210" r="2" fill="red" />
<circle cx="380" cy="230" r="2" fill="red" />
<circle cx="350" cy="230" r="2" fill="red" />
<circle cx="390" cy="160" r="2" fill="red" />
<circle cx="360" cy="160" r="2" fill="red" />
<circle cx="370" cy="180" r="2" fill="red" />
<circle cx="410" cy="190" r="2" fill="red" />
<circle cx="380" cy="190" r="2" fill="red" />
<circle cx="360" cy="170" r="2" fill="red" />
<circle cx="400" cy="180" r="2" fill="red" />
<circle cx="370" cy="180" r="2" fill="red" />
<circle cx="380" cy="200" r="2" fill="red" />
<circle cx="370" cy="140" r="2" fill="red" />
<circle cx="380" cy="160" r="2" fill="red" />
<circle cx="350" cy="160" r="2" fill="red" />
<circle cx="420" cy="150" r="2" fill="red" />
<circle cx="390" cy="170" r="2" fill="red" />
<circle cx="340" cy="150" r="2" fill="red" />
<circle cx="410" cy="140" r="2" fill="red" />
<circle cx="380" cy="160" r="2" fill="red" />
<circle cx="420" cy="160" r="2" fill="red" />
<circle cx="390" cy="180" r="2" fill="red" />
<circle cx="390" cy="160" r="2" fill="red" />
<circle cx="360" cy="180" r="2" fill="red" />
<circle cx="430" cy="170" r="2" fill="red" />
<circle cx="370" cy="110" r="2" fill="red" />
<circle cx="440" cy="100" r="2" fill="red" />
<circle cx="380" cy="130" r="2" fill="red" />
<circle cx="450" cy="120" r="2" fill="red" />
<circle cx="420" cy="140" r="2" fill="red" />
<circle cx="420" cy="120" r="2" fill="red" />
<circle cx="390" cy="140" r="2" fill="red" />
<circle cx="460" cy="130" r="2" fill="red" />
<circle cx="410" cy="110" r="2" fill="red" />
<circle cx="380" cy="130" r="2" fill="red" />
<circle cx="450" cy="120" r="2" fill="red" />
<circle cx="420" cy="130" r="2" fill="red" />
<circle cx="390" cy="150" r="2" fill="red" />
<circle cx="460" cy="140" r="2" fill="red" />
<circle cx="320" cy="160" r="2" fill="red" />
<circle cx="290" cy="160" r="2" fill="red" />
<circle cx="360" cy="150" r="2" fill="red" />
<circle cx="370" cy="170" r="2" fill="red" />
<circle cx="340" cy="190" r="2" fill="red" />
<circle cx="340" cy="170" r="2" fill="red" />
<circle cx="310" cy="190" r="2" fill="red" />
<circle cx="380" cy="180" r="2" fill="red" />
<circle cx="360" cy="160" r="2" fill="red" />
<circle cx="330" cy="180" r="2" fill="red" />
<circle cx="330" cy="160" r="2" fill="red" />
<circle cx="300" cy="180" r="2" fill="red" />
<circle cx="370" cy="170" r="2" fill="red" />
<circle cx="380" cy="190" r="2" fill="red" />
<circle cx="320" cy="130" r="2" fill="red" />
<circle cx="390" cy="120" r="2" fill="red" />
<circle cx="360" cy="120" r="2" fill="red" />
<circle cx="370" cy="140" r="2" fill="red" />
<circle cx="340" cy="160" r="2" fill="red" />
<circle cx="410" cy="150" r="2" fill="red" />
<circle cx="360" cy="130" r="2" fill="red" />
<circle cx="330" cy="150" r="2" fill="red" />
<circle cx="400" cy="140" r="2" fill="red" />
<circle cx="410" cy="210" r="2" fill="red" />
<circle cx="420" cy="230" r="2" fill="red" />
<circle cx="390" cy="230" r="2" fill="red" />
<circle cx="460" cy="220" r="2" fill="red" />
<circle cx="430" cy="240" r="2" fill="red" />
<circle cx="410" cy="220" r="2" fill="red" />
<circle cx="380" cy="220" r="2" fill="red" />
<circle cx="450" cy="210" r="2" fill="red" />
<circle cx="420" cy="230" r="2" fill="red" />
<circle cx="390" cy="240" r="2" fill="red" />
<circle cx="460" cy="230" r="2" fill="red" />
<circle cx="430" cy="250" r="2" fill="red" />
<circle cx="430" cy="230" r="2" fill="red" />
<circle cx="400" cy="250" r="2" fill="red" />
<circle cx="470" cy="240" r="2" fill="red" />
<circle cx="430" cy="220" r="2" fill="red" />
<circle cx="340" cy="210" r="2" fill="red" />
<circle cx="350" cy="230" r="2" fill="red" />
<circle cx="320" cy="230" r="2" fill="red" />
<circle cx="440" cy="240" r="2" fill="red" />
<circle cx="390" cy="220" r="2" fill="red" />
<circle cx="360" cy="240" r="2" fill="red" />
<circle cx="340" cy="220" r="2" fill="red" />
<circle cx="310" cy="220" r="2" fill="red" />
<circle cx="380" cy="210" r="2" fill="red" />
<circle cx="350" cy="230" r="2" fill="red" />
<circle cx="390" cy="230" r="2" fill="red" />
<circle cx="360" cy="250" r="2" fill="red" />
<circle cx="360" cy="230" r="2" fill="red" />
<circle cx="330" cy="250" r="2" fill="red" />
<circle cx="400" cy="240" r="2" fill="red" />
<circle cx="410" cy="240" r="2" fill="red" />
<circle cx="370" cy="180" r="2" fill="red" />
<circle cx="340" cy="180" r="2" fill="red" />
<circle cx="410" cy="170" r="2" fill="red" />
<circle cx="350" cy="200" r="2" fill="red" />
<circle cx="420" cy="190" r="2" fill="red" />
<circle cx="390" cy="210" r="2" fill="red" />
<circle cx="390" cy="190" r="2" fill="red" />
<circle cx="360" cy="210" r="2" fill="red" />
<circle cx="430" cy="200" r="2" fill="red" />
<circle cx="450" cy="250" r="2" fill="red" />
<circle cx="340" cy="190" r="2" fill="red" />
<circle cx="410" cy="180" r="2" fill="red" />
<circle cx="380" cy="200" r="2" fill="red" />
<circle cx="380" cy="180" r="2" fill="red" />
<circle cx="350" cy="200" r="2" fill="red" />
<circle cx="420" cy="190" r="2" fill="red" />
<circle cx="390" cy="200" r="2" fill="red" />
<circle cx="360" cy="220" r="2" fill="red" />
<circle cx="430" cy="210" r="2" fill="red" />
<circle cx="430" cy="190" r="2" fill="red" />
<circle cx="420" cy="180" r="2" fill="red" />
<circle cx="430" cy="200" r="2" fill="red" />
<circle cx="400" cy="200" r="2" fill="red" />
<circle cx="470" cy="190" r="2" fill="red" />
<circle cx="440" cy="210" r="2" fill="red" />
<circle cx="450" cy="140" r="2" fill="red" />
<circle cx="460" cy="160" r="2" fill="red" />
<circle cx="430" cy="160" r="2" fill="red" />
<circle cx="500" cy="150" r="2" fill="red" />
<circle cx="470" cy="170" r="2" fill="red" />
<circle cx="420" cy="150" r="2" fill="red" />
<circle cx="490" cy="140" r="2" fill="red" />
<circle cx="460" cy="160" r="2" fill="red" />
<circle cx="430" cy="170" r="2" fill="red" />
<circle cx="500" cy="160" r="2" fill="red" />
<circle cx="470" cy="180" r="2" fill="red" />
<circle cx="470" cy="160" r="2" fill="red" />
<circle cx="440" cy="180" r="2" fill="red" />
<circle cx="510" cy="170" r="2" fill="red" />
<circle cx="370" cy="190" r="2" fill="red" />
<circle cx="380" cy="210" r="2" fill="red" />
<circle cx="350" cy="210" r="2" fill="red" />
<circle cx="420" cy="200" r="2" fill="red" />
<circle cx="390" cy="220" r="2" fill="red" />
<circle cx="370" cy="200" r="2" fill="red" />
<circle cx="340" cy="200" r="2" fill="red" />
<circle cx="410" cy="190" r="2" fill="red" />
<circle cx="380" cy="210" r="2" fill="red" />
<circle cx="420" cy="210" r="2" fill="red" />
<circle cx="390" cy="230" r="2" fill="red" />
<circle cx="390" cy="210" r="2" fill="red" />
<circle cx="360" cy="230" r="2" fill="red" />
<circle cx="430" cy="220" r="2" fill="red" />
<circle cx="400" cy="160" r="2" fill="red" />
<circle cx="370" cy="160" r="2" fill="red" />
<circle cx="440" cy="150" r="2" fill="red" />
<circle cx="380" cy="180" r="2" fill="red" />
<circle cx="450" cy="170" r="2" fill="red" />
<circle cx="420" cy="190" r="2" fill="red" />
<circle cx="420" cy="170" r="2" fill="red" />
<circle cx="390" cy="190" r="2" fill="red" />
<circle cx="460" cy="180" r="2" fill="red" />
<circle cx="370" cy="170" r="2" fill="red" />
<circle cx="440" cy="160" r="2" fill="red" />
<circle cx="410" cy="180" r="2" fill="red" />
<circle cx="410" cy="160" r="2" fill="red" />
<circle cx="380" cy="180" r="2" fill="red" />
<circle cx="450" cy="170" r="2" fill="red" />
<circle cx="420" cy="180" r="2" fill="red" />
<circle cx="390" cy="200" r="2" fill="red" />
<circle cx="460" cy="190" r="2" fill="red" />
<circle cx="380" cy="140" r="2" fill="red" />
<circle cx="390" cy="160" r="2" fill="red" />
<circle cx="360" cy="160" r="2" fill="red" />
<circle cx="430" cy="150" r="2" fill="red" />
<circle cx="400" cy="170" r="2" fill="red" />
<circle cx="350" cy="150" r="2" fill="red" />
<circle cx="420" cy="140" r="2" fill="red" />
<circle cx="390" cy="160" r="2" fill="red" />
<circle cx="430" cy="160" r="2" fill="red" />
<circle cx="400" cy="180" r="2" fill="red" />
<circle cx="400" cy="160" r="2" fill="red" />
<circle cx="370" cy="180" r="2" fill="red" />
<circle cx="440" cy="170" r="2" fill="red" />
<circle cx="380" cy="110" r="2" fill="red" />
<circle cx="450" cy="100" r="2" fill="red" />
<circle cx="390" cy="130" r="2" fill="red" />
<circle cx="460" cy="120" r="2" fill="red" />
<circle cx="430" cy="140" r="2" fill="red" />
<circle cx="430" cy="120" r="2" fill="red" />
<circle cx="400" cy="140" r="2" fill="red" />
<circle cx="470" cy="130" r="2" fill="red" />
<circle cx="420" cy="110" r="2" fill="red" />
<circle cx="390" cy="130" r="2" fill="red" />
<circle cx="460" cy="120" r="2" fill="red" />
<circle cx="430" cy="130" r="2" fill="red" />
<circle cx="400" cy="150" r="2" fill="red" />
<circle cx="470" cy="140" r="2" fill="red" />
<circle cx="330" cy="160" r="2" fill="red" />
<circle cx="300" cy="160" r="2" fill="red" />
<circle cx="370" cy="150" r="2" fill="red" />
<circle cx="380" cy="170" r="2" fill="red" />
<circle cx="350" cy="190" r="2" fill="red" />
<circle cx="350" cy="170" r="2" fill="red" />
<circle cx="320" cy="190" r="2" fill="red" />
<circle cx="390" cy="180" r="2" fill="red" />
<circle cx="370" cy="160" r="2" fill="red" />
<circle cx="340" cy="180" r="2" fill="red" />
<circle cx="340" cy="160" r="2" fill="red" />
<circle cx="310" cy="180" r="2" fill="red" />
<circle cx="380" cy="170" r="2" fill="red" />
<circle cx="390" cy="190" r="2" fill="red" />
<circle cx="330" cy="130" r="2" fill="red" />
<circle cx="400" cy="120" r="2" fill="red" />
<circle cx="370" cy="120" r="2" fill="red" />
<circle cx="380" cy="140" r="2" fill="red" />
<circle cx="350" cy="160" r="2" fill="red" />
<circle cx="420" cy="150" r="2" fill="red" />
<circle cx="370" cy="130" r="2" fill="red" />
<circle cx="340" cy="150" r="2" fill="red" />
<circle cx="410" cy="140" r="2" fill="red" />
<circle cx="430" cy="190" r="2" fill="red" />
<circle cx="440" cy="210" r="2" fill="red" />
<circle cx="410" cy="210" r="2" fill="red" />
<circle cx="480" cy="200" r="2" fill="red" />
<circle cx="450" cy="220" r="2" fill="red" />
<circle cx="400" cy="200" r="2" fill="red" />
<circle cx="470" cy="190" r="2" fill="red" />
<circle cx="440" cy="210" r="2" fill="red" />
<circle cx="410" cy="220" r="2" fill="red" />
<circle cx="480" cy="210" r="2" fill="red" />
<circle cx="450" cy="230" r="2" fill="red" />
<circle cx="450" cy="210" r="2" fill="red" />
<circle cx="420" cy="230" r="2" fill="red" />
<circle cx="490" cy="220" r="2" fill="red" />
<circle cx="380" cy="210" r="2" fill="red" />
<circle cx="350" cy="210" r="2" fill="red" />
<circle cx="420" cy="200" r="2" fill="red" />
<circle cx="360" cy="230" r="2" fill="red" />
<circle cx="430" cy="220" r="2" fill="red" />
<circle cx="400" cy="240" r="2" fill="red" />
<circle cx="400" cy="220" r="2" fill="red" />
<circle cx="370" cy="240" r="2" fill="red" />
<circle cx="440" cy="230" r="2" fill="red" />
<circle cx="350" cy="220" r="2" fill="red" />
<circle cx="420" cy="210" r="2" fill="red" />
<circle cx="390" cy="230" r="2" fill="red" />
<circle cx="390" cy="210" r="2" fill="red" />
<circle cx="360" cy="230" r="2" fill="red" />
<circle cx="430" cy="220" r="2" fill="red" />
<circle cx="400" cy="230" r="2" fill="red" />
<circle cx="370" cy="250" r="2" fill="red" />
<circle cx="440" cy="240" r="2" fill="red" />
<circle cx="360" cy="190" r="2" fill="red" />
<circle cx="370" cy="210" r="2" fill="red" />
<circle cx="340" cy="210" r="2" fill="red" />
<circle cx="410" cy="200" r="2" fill="red" />
<circle cx="380" cy="220" r="2" fill="red" />
<circle cx="330" cy="200" r="2" fill="red" />
<circle cx="400" cy="190" r="2" fill="red" />
<circle cx="370" cy="210" r="2" fill="red" />
<circle cx="410" cy="210" r="2" fill="red" />
<circle cx="380" cy="230" r="2" fill="red" />
<circle cx="380" cy="210" r="2" fill="red" />
<circle cx="350" cy="230" r="2" fill="red" />
<circle cx="420" cy="220" r="2" fill="red" />
<circle cx="360" cy="160" r="2" fill="red" />
<circle cx="430" cy="150" r="2" fill="red" />
<circle cx="370" cy="180" r="2" fill="red" />
<circle cx="440" cy="170" r="2" fill="red" />
<circle cx="410" cy="190" r="2" fill="red" />
<circle cx="410" cy="170" r="2" fill="red" />
<circle cx="380" cy="190" r="2" fill="red" />
<circle cx="450" cy="180" r="2" fill="red" />
<circle cx="400" cy="160" r="2" fill="red" />
<circle cx="370" cy="180" r="2" fill="red" />
<circle cx="440" cy="170" r="2" fill="red" />
<circle cx="410" cy="180" r="2" fill="red" />
<circle cx="380" cy="200" r="2" fill="red" />
<circle cx="450" cy="190" r="2" fill="red" />
<circle cx="310" cy="210" r="2" fill="red" />
<circle cx="280" cy="210" r="2" fill="red" />
<circle cx="350" cy="200" r="2" fill="red" />
<circle cx="360" cy="220" r="2" fill="red" />
<circle cx="330" cy="240" r="2" fill="red" />
<circle cx="330" cy="220" r="2" fill="red" />
<circle cx="300" cy="240" r="2" fill="red" />
<circle cx="370" cy="230" r="2" fill="red" />
<circle cx="350" cy="210" r="2" fill="red" />
<circle cx="320" cy="230" r="2" fill="red" />
<circle cx="320" cy="210" r="2" fill="red" />
<circle cx="290" cy="230" r="2" fill="red" />
<circle cx="360" cy="220" r="2" fill="red" />
<circle cx="370" cy="240" r="2" fill="red" />
<circle cx="310" cy="180" r="2" fill="red" />
<circle cx="380" cy="170" r="2" fill="red" />
<circle cx="350" cy="170" r="2" fill="red" />
<circle cx="360" cy="190" r="2" fill="red" />
<circle cx="330" cy="210" r="2" fill="red" />
<circle cx="400" cy="200" r="2" fill="red" />
<circle cx="350" cy="180" r="2" fill="red" />
<circle cx="320" cy="200" r="2" fill="red" />
<circle cx="390" cy="190" r="2" fill="red" />
<circle cx="390" cy="170" r="2" fill="red" />
<circle cx="400" cy="190" r="2" fill="red" />
<circle cx="370" cy="190" r="2" fill="red" />
<circle cx="440" cy="180" r="2" fill="red" />
<circle cx="410" cy="200" r="2" fill="red" />
<circle cx="360" cy="180" r="2" fill="red" />
<circle cx="430" cy="170" r="2" fill="red" />
<circle cx="400" cy="190" r="2" fill="red" />
<circle cx="440" cy="190" r="2" fill="red" />
<circle cx="410" cy="210" r="2" fill="red" />
<circle cx="410" cy="190" r="2" fill="red" />
<circle cx="380" cy="210" r="2" fill="red" />
<circle cx="450" cy="200" r="2" fill="red" />
<circle cx="390" cy="140" r="2" fill="red" />
<circle cx="460" cy="130" r="2" fill="red" />
<circle cx="400" cy="160" r="2" fill="red" />
<circle cx="470" cy="150" r="2" fill="red" />
<circle cx="440" cy="170" r="2" fill="red" />
<circle cx="440" cy="150" r="2" fill="red" />
<circle cx="410" cy="170" r="2" fill="red" />
<circle cx="480" cy="160" r="2" fill="red" />
<circle cx="430" cy="140" r="2" fill="red" />
<circle cx="400" cy="160" r="2" fill="red" />
<circle cx="470" cy="150" r="2" fill="red" />
<circle cx="440" cy="160" r="2" fill="red" />
<circle cx="410" cy="180" r="2" fill="red" />
<circle cx="480" cy="170" r="2" fill="red" />
<circle cx="340" cy="190" r="2" fill="red" />
<circle cx="310" cy="190" r="2" fill="red" />
<circle cx="380" cy="180" r="2" fill="red" />
<circle cx="390" cy="200" r="2" fill="red" />
<circle cx="360" cy="220" r="2" fill="red" />
<circle cx="360" cy="200" r="2" fill="red" />
<circle cx="330" cy="220" r="2" fill="red" />
<circle cx="400" cy="210" r="2" fill="red" />
<circle cx="380" cy="190" r="2" fill="red" />
<circle cx="350" cy="210" r="2" fill="red" />
<circle cx="350" cy="190" r="2" fill="red" />
<circle cx="320" cy="210" r="2" fill="red" />
<circle cx="390" cy="200" r="2" fill="red" />
<circle cx="400" cy="220" r="2" fill="red" />
<circle cx="340" cy="160" r="2" fill="red" />
<circle cx="410" cy="150" r="2" fill="red" />
<circle cx="380" cy="150" r="2" fill="red" />
<circle cx="390" cy="170" r="2" fill="red" />
<circle cx="360" cy="190" r="2" fill="red" />
<circle cx="430" cy="180" r="2" fill="red" />
<circle cx="380" cy="160" r="2" fill="red" />
<circle cx="350" cy="180" r="2" fill="red" />
<circle cx="420" cy="170" r="2" fill="red" />
<circle cx="320" cy="140" r="2" fill="red" />
<circle cx="390" cy="130" r="2" fill="red" />
<circle cx="400" cy="150" r="2" fill="red" />
<circle cx="370" cy="170" r="2" fill="red" />
<circle cx="370" cy="150" r="2" fill="red" />
<circle cx="340" cy="170" r="2" fill="red" />
<circle cx="410" cy="160" r="2" fill="red" />
<circle cx="360" cy="140" r="2" fill="red" />
<circle cx="330" cy="160" r="2" fill="red" />
<circle cx="400" cy="150" r="2" fill="red" />
<circle cx="410" cy="170" r="2" fill="red" />
<circle cx="390" cy="100" r="2" fill="red" />
<circle cx="400" cy="120" r="2" fill="red" />
<circle cx="370" cy="140" r="2" fill="red" />
<circle cx="440" cy="130" r="2" fill="red" />
<circle cx="340" cy="150" r="2" fill="red" />
<circle cx="310" cy="150" r="2" fill="red" />
<circle cx="360" cy="180" r="2" fill="red" />
<circle cx="350" cy="170" r="2" fill="red" />
<circle cx="340" cy="120" r="2" fill="red" />
<circle cx="360" cy="220" r="2" fill="red" />
<circle cx="370" cy="240" r="2" fill="red" />
<circle cx="340" cy="240" r="2" fill="red" />
<circle cx="410" cy="230" r="2" fill="red" />
<circle cx="380" cy="250" r="2" fill="red" />
<circle cx="390" cy="190" r="2" fill="red" />
<circle cx="360" cy="190" r="2" fill="red" />
<circle cx="430" cy="180" r="2" fill="red" />
<circle cx="400" cy="200" r="2" fill="red" />
<circle cx="370" cy="210" r="2" fill="red" />
<circle cx="440" cy="200" r="2" fill="red" />
<circle cx="410" cy="220" r="2" fill="red" />
<circle cx="410" cy="200" r="2" fill="red" />
<circle cx="380" cy="220" r="2" fill="red" />
<circle cx="450" cy="210" r="2" fill="red" />
<circle cx="450" cy="200" r="2" fill="red" />
<circle cx="470" cy="150" r="2" fill="red" />
<circle cx="480" cy="170" r="2" fill="red" />
<circle cx="450" cy="170" r="2" fill="red" />
<circle cx="490" cy="180" r="2" fill="red" />
<circle cx="390" cy="200" r="2" fill="red" />
<circle cx="400" cy="220" r="2" fill="red" />
<circle cx="370" cy="220" r="2" fill="red" />
<circle cx="410" cy="230" r="2" fill="red" />
<circle cx="420" cy="170" r="2" fill="red" />
<circle cx="390" cy="170" r="2" fill="red" />
<circle cx="430" cy="180" r="2" fill="red" />
<circle cx="400" cy="190" r="2" fill="red" />
<circle cx="440" cy="200" r="2" fill="red" />
<circle cx="410" cy="200" r="2" fill="red" />
<circle cx="400" cy="150" r="2" fill="red" />
<circle cx="410" cy="170" r="2" fill="red" />
<circle cx="380" cy="170" r="2" fill="red" />
<circle cx="450" cy="160" r="2" fill="red" />
<circle cx="420" cy="180" r="2" fill="red" />
<circle cx="400" cy="120" r="2" fill="red" />
<circle cx="470" cy="110" r="2" fill="red" />
<circle cx="440" cy="130" r="2" fill="red" />
<circle cx="410" cy="140" r="2" fill="red" />
<circle cx="480" cy="130" r="2" fill="red" />
<circle cx="450" cy="150" r="2" fill="red" />
<circle cx="450" cy="130" r="2" fill="red" />
<circle cx="420" cy="150" r="2" fill="red" />
<circle cx="490" cy="140" r="2" fill="red" />
<circle cx="350" cy="170" r="2" fill="red" />
<circle cx="320" cy="170" r="2" fill="red" />
<circle cx="390" cy="160" r="2" fill="red" />
<circle cx="360" cy="180" r="2" fill="red" />
<circle cx="400" cy="180" r="2" fill="red" />
<circle cx="370" cy="200" r="2" fill="red" />
<circle cx="370" cy="180" r="2" fill="red" />
<circle cx="340" cy="200" r="2" fill="red" />
<circle cx="410" cy="190" r="2" fill="red" />
<circle cx="350" cy="140" r="2" fill="red" />
<circle cx="420" cy="130" r="2" fill="red" />
<circle cx="390" cy="150" r="2" fill="red" />
<circle cx="380" cy="250" r="2" fill="red" />
  

<defs>
    <radialGradient id="redball" cx="30%" cy="30%" r="100%" fx="30%" fy="30%">
      <stop offset="0%" style="stop-color:rgb(255,250,250)" />
      <stop offset="3%" style="stop-color:rgb(255,250,250)" />
      <stop offset="7%" style="stop-color:rgb(255,160,160)" />
      <stop offset="70%" style="stop-color:rgb(255,0,0)" />
      <stop offset="100%" style="stop-color:rgb(255,0,0)" />
    </radialGradient>
    <radialGradient id="greenball" cx="30%" cy="30%" r="100%" fx="30%" fy="30%">
      <stop offset="0%" style="stop-color:rgb(250,255,250)" />
      <stop offset="3%" style="stop-color:rgb(250,255,250)" />
      <stop offset="7%" style="stop-color:rgb(160,255,160)" />
      <stop offset="70%" style="stop-color:rgb(0,255,0)" />
      <stop offset="100%" style="stop-color:rgb(0,255,0)" />
    </radialGradient>
    <radialGradient id="blueball" cx="30%" cy="30%" r="100%" fx="30%" fy="30%">
      <stop offset="0%" style="stop-color:rgb(250,250,255)" />
      <stop offset="3%" style="stop-color:rgb(250,250,255)" />
      <stop offset="7%" style="stop-color:rgb(160,160,255)" />
      <stop offset="70%" style="stop-color:rgb(0,0,255)" />
      <stop offset="100%" style="stop-color:rgb(0,255,0)" />
    </radialGradient>
    <radialGradient id="yellowball" cx="30%" cy="30%" r="100%" fx="30%" fy="30%">
      <stop offset="0%" style="stop-color:rgb(255,255,250)" />
      <stop offset="3%" style="stop-color:rgb(255,255,250)" />
      <stop offset="7%" style="stop-color:rgb(255,255,160)" />
      <stop offset="70%" style="stop-color:rgb(255,255,0)" />
      <stop offset="100%" style="stop-color:rgb(255,255,0)" />
    </radialGradient>
    <radialGradient id="greyball" cx="30%" cy="30%" r="100%" fx="30%" fy="30%">
      <stop offset="0%" style="stop-color:rgb(250,250,250)" />
      <stop offset="3%" style="stop-color:rgb(250,250,250)" />
      <stop offset="7%" style="stop-color:rgb(160,160,160)" />
      <stop offset="70%" style="stop-color:rgb(100,100,100)" />
      <stop offset="100%" style="stop-color:rgb(100,100,100)" />
    </radialGradient>
  </defs>


</svg>
