<?xml version="1.0" encoding="utf-8"?>
<svg xmlns="http://www.w3.org/2000/svg" version="1.1" width="2000" height="1000">

<line x1="50" y1="50" x2="50" y2="750" stroke="black" />
<line x1="50" y1="750" x2="1450" y2="750" stroke="black" />
<polygon points=" 45,50 55,50 50,40" style="fill:black" />
<polygon points=" 1450,755 1450,745 1460,750" style="fill:black" />
<text x="3" y="50" fill="grey" >cout 1</text>
<text x="1430" y="770" fill="grey" >cout 2</text>
<circle cx="983.333" cy="412.069" r="2" fill="red" />
<circle cx="1035.19" cy="387.931" r="2" fill="red" />
<circle cx="724.074" cy="387.931" r="2" fill="red" />
<circle cx="879.63" cy="291.379" r="2" fill="red" />
<circle cx="931.481" cy="267.241" r="2" fill="red" />
<circle cx="620.37" cy="267.241" r="2" fill="red" />
<circle cx="1190.74" cy="315.517" r="2" fill="red" />
<circle cx="879.63" cy="315.517" r="2" fill="red" />
<circle cx="620.37" cy="267.241" r="2" fill="red" />
<circle cx="724.074" cy="387.931" r="3" fill="green" />
<text x="729.074" y="392.931" fill="grey" >13 ; 15</text>
<circle cx="983.333" cy="412.069" r="3" fill="green" />
<circle cx="620.37" cy="267.241" r="3" fill="green" />


</svg>
