<?xml version="1.0" encoding="utf-8"?>
<svg xmlns="http://www.w3.org/2000/svg" version="1.1" width="2000" height="1000">

<line x1="50" y1="50" x2="50" y2="750" stroke="black" />
<line x1="50" y1="750" x2="1450" y2="750" stroke="black" />
<polygon points=" 45,50 55,50 50,40" style="fill:black" />
<polygon points=" 1450,755 1450,745 1460,750" style="fill:black" />
<text x="3" y="50" fill="grey" >cout 1</text>
<text x="1430" y="770" fill="grey" >cout 2</text>
<circle cx="951.695" cy="387.037" r="2" fill="red" />
<circle cx="856.78" cy="348.148" r="2" fill="red" />
<circle cx="880.508" cy="361.111" r="2" fill="red" />
<circle cx="1046.61" cy="348.148" r="2" fill="red" />
<circle cx="714.407" cy="374.074" r="2" fill="red" />
<circle cx="738.136" cy="400" r="2" fill="red" />
<circle cx="666.949" cy="400" r="2" fill="red" />
<circle cx="833.051" cy="387.037" r="2" fill="red" />
<circle cx="761.864" cy="412.963" r="2" fill="red" />
<circle cx="714.407" cy="387.037" r="2" fill="red" />
<circle cx="643.22" cy="387.037" r="2" fill="red" />
<circle cx="809.322" cy="374.074" r="2" fill="red" />
<circle cx="785.593" cy="348.148" r="2" fill="red" />
<circle cx="738.136" cy="400" r="2" fill="red" />
<circle cx="833.051" cy="400" r="2" fill="red" />
<circle cx="761.864" cy="425.926" r="2" fill="red" />
<circle cx="761.864" cy="400" r="2" fill="red" />
<circle cx="690.678" cy="425.926" r="2" fill="red" />
<circle cx="856.78" cy="412.963" r="2" fill="red" />
<circle cx="785.593" cy="335.185" r="2" fill="red" />
<circle cx="714.407" cy="335.185" r="2" fill="red" />
<circle cx="880.508" cy="322.222" r="2" fill="red" />
<circle cx="738.136" cy="361.111" r="2" fill="red" />
<circle cx="951.695" cy="335.185" r="2" fill="red" />
<circle cx="904.237" cy="348.148" r="2" fill="red" />
<circle cx="833.051" cy="374.074" r="2" fill="red" />
<circle cx="833.051" cy="348.148" r="2" fill="red" />
<circle cx="761.864" cy="374.074" r="2" fill="red" />
<circle cx="927.966" cy="361.111" r="2" fill="red" />
<circle cx="714.407" cy="348.148" r="2" fill="red" />
<circle cx="880.508" cy="335.185" r="2" fill="red" />
<circle cx="809.322" cy="361.111" r="2" fill="red" />
<circle cx="809.322" cy="335.185" r="2" fill="red" />
<circle cx="738.136" cy="361.111" r="2" fill="red" />
<circle cx="880.508" cy="361.111" r="2" fill="red" />
<circle cx="904.237" cy="348.148" r="2" fill="red" />
<circle cx="833.051" cy="361.111" r="2" fill="red" />
<circle cx="761.864" cy="387.037" r="2" fill="red" />
<circle cx="927.966" cy="374.074" r="2" fill="red" />
<circle cx="927.966" cy="348.148" r="2" fill="red" />
<circle cx="904.237" cy="335.185" r="2" fill="red" />
<circle cx="927.966" cy="361.111" r="2" fill="red" />
<circle cx="856.78" cy="361.111" r="2" fill="red" />
<circle cx="951.695" cy="374.074" r="2" fill="red" />
<circle cx="975.424" cy="283.333" r="2" fill="red" />
<circle cx="809.322" cy="374.074" r="2" fill="red" />
<circle cx="999.153" cy="309.259" r="2" fill="red" />
<circle cx="927.966" cy="309.259" r="2" fill="red" />
<circle cx="1022.88" cy="322.222" r="2" fill="red" />
<circle cx="904.237" cy="296.296" r="2" fill="red" />
<circle cx="999.153" cy="309.259" r="2" fill="red" />
<circle cx="927.966" cy="322.222" r="2" fill="red" />
<circle cx="1022.88" cy="335.185" r="2" fill="red" />
<circle cx="951.695" cy="335.185" r="2" fill="red" />
<circle cx="785.593" cy="348.148" r="2" fill="red" />
<circle cx="809.322" cy="374.074" r="2" fill="red" />
<circle cx="975.424" cy="361.111" r="2" fill="red" />
<circle cx="738.136" cy="374.074" r="2" fill="red" />
<circle cx="833.051" cy="387.037" r="2" fill="red" />
<circle cx="785.593" cy="361.111" r="2" fill="red" />
<circle cx="714.407" cy="361.111" r="2" fill="red" />
<circle cx="809.322" cy="374.074" r="2" fill="red" />
<circle cx="833.051" cy="400" r="2" fill="red" />
<circle cx="761.864" cy="400" r="2" fill="red" />
<circle cx="856.78" cy="309.259" r="2" fill="red" />
<circle cx="785.593" cy="309.259" r="2" fill="red" />
<circle cx="809.322" cy="335.185" r="2" fill="red" />
<circle cx="904.237" cy="387.037" r="2" fill="red" />
<circle cx="904.237" cy="348.148" r="2" fill="red" />
<circle cx="833.051" cy="348.148" r="2" fill="red" />
<circle cx="785.593" cy="322.222" r="2" fill="red" />
<circle cx="880.508" cy="335.185" r="2" fill="red" />
<circle cx="809.322" cy="335.185" r="2" fill="red" />
<circle cx="833.051" cy="361.111" r="2" fill="red" />
<circle cx="809.322" cy="283.333" r="2" fill="red" />
<circle cx="833.051" cy="309.259" r="2" fill="red" />
<circle cx="761.864" cy="309.259" r="2" fill="red" />
<circle cx="927.966" cy="296.296" r="2" fill="red" />
<circle cx="904.237" cy="361.111" r="2" fill="red" />
<circle cx="856.78" cy="322.222" r="2" fill="red" />
<circle cx="738.136" cy="296.296" r="2" fill="red" />
<circle cx="904.237" cy="283.333" r="2" fill="red" />
<circle cx="833.051" cy="309.259" r="2" fill="red" />
<circle cx="927.966" cy="309.259" r="2" fill="red" />
<circle cx="856.78" cy="335.185" r="2" fill="red" />
<circle cx="856.78" cy="309.259" r="2" fill="red" />
<circle cx="785.593" cy="335.185" r="2" fill="red" />
<circle cx="951.695" cy="322.222" r="2" fill="red" />
<circle cx="809.322" cy="244.444" r="2" fill="red" />
<circle cx="833.051" cy="387.037" r="2" fill="red" />
<circle cx="975.424" cy="231.481" r="2" fill="red" />
<circle cx="833.051" cy="270.37" r="2" fill="red" />
<circle cx="999.153" cy="257.407" r="2" fill="red" />
<circle cx="927.966" cy="283.333" r="2" fill="red" />
<circle cx="927.966" cy="257.407" r="2" fill="red" />
<circle cx="856.78" cy="283.333" r="2" fill="red" />
<circle cx="1022.88" cy="270.37" r="2" fill="red" />
<circle cx="904.237" cy="244.444" r="2" fill="red" />
<circle cx="833.051" cy="270.37" r="2" fill="red" />
<circle cx="999.153" cy="257.407" r="2" fill="red" />
<circle cx="999.153" cy="374.074" r="2" fill="red" />
<circle cx="927.966" cy="270.37" r="2" fill="red" />
<circle cx="856.78" cy="296.296" r="2" fill="red" />
<circle cx="1022.88" cy="283.333" r="2" fill="red" />
<circle cx="690.678" cy="309.259" r="2" fill="red" />
<circle cx="619.492" cy="309.259" r="2" fill="red" />
<circle cx="785.593" cy="296.296" r="2" fill="red" />
<circle cx="809.322" cy="322.222" r="2" fill="red" />
<circle cx="738.136" cy="348.148" r="2" fill="red" />
<circle cx="738.136" cy="322.222" r="2" fill="red" />
<circle cx="666.949" cy="348.148" r="2" fill="red" />
<circle cx="975.424" cy="412.963" r="2" fill="red" />
<circle cx="999.153" cy="361.111" r="2" fill="red" />
<circle cx="833.051" cy="335.185" r="2" fill="red" />
<circle cx="785.593" cy="309.259" r="2" fill="red" />
<circle cx="714.407" cy="335.185" r="2" fill="red" />
<circle cx="714.407" cy="309.259" r="2" fill="red" />
<circle cx="643.22" cy="335.185" r="2" fill="red" />
<circle cx="809.322" cy="322.222" r="2" fill="red" />
<circle cx="833.051" cy="348.148" r="2" fill="red" />
<circle cx="690.678" cy="270.37" r="2" fill="red" />
<circle cx="856.78" cy="257.407" r="2" fill="red" />
<circle cx="785.593" cy="257.407" r="2" fill="red" />
<circle cx="1046.61" cy="296.296" r="2" fill="red" />
<circle cx="809.322" cy="283.333" r="2" fill="red" />
<circle cx="738.136" cy="309.259" r="2" fill="red" />
<circle cx="904.237" cy="296.296" r="2" fill="red" />
<circle cx="785.593" cy="270.37" r="2" fill="red" />
<circle cx="714.407" cy="296.296" r="2" fill="red" />
<circle cx="880.508" cy="283.333" r="2" fill="red" />
<circle cx="904.237" cy="374.074" r="2" fill="red" />
<circle cx="927.966" cy="400" r="2" fill="red" />
<circle cx="856.78" cy="400" r="2" fill="red" />
<circle cx="1022.88" cy="387.037" r="2" fill="red" />
<circle cx="1070.34" cy="322.222" r="2" fill="red" />
<circle cx="951.695" cy="412.963" r="2" fill="red" />
<circle cx="904.237" cy="387.037" r="2" fill="red" />
<circle cx="833.051" cy="387.037" r="2" fill="red" />
<circle cx="999.153" cy="374.074" r="2" fill="red" />
<circle cx="927.966" cy="400" r="2" fill="red" />
<circle cx="856.78" cy="412.963" r="2" fill="red" />
<circle cx="1022.88" cy="400" r="2" fill="red" />
<circle cx="951.695" cy="425.926" r="2" fill="red" />
<circle cx="951.695" cy="400" r="2" fill="red" />
<circle cx="880.508" cy="425.926" r="2" fill="red" />
<circle cx="999.153" cy="322.222" r="2" fill="red" />
<circle cx="1046.61" cy="412.963" r="2" fill="red" />
<circle cx="738.136" cy="374.074" r="2" fill="red" />
<circle cx="761.864" cy="400" r="2" fill="red" />
<circle cx="690.678" cy="400" r="2" fill="red" />
<circle cx="856.78" cy="387.037" r="2" fill="red" />
<circle cx="785.593" cy="412.963" r="2" fill="red" />
<circle cx="738.136" cy="387.037" r="2" fill="red" />
<circle cx="666.949" cy="387.037" r="2" fill="red" />
<circle cx="833.051" cy="374.074" r="2" fill="red" />
<circle cx="761.864" cy="400" r="2" fill="red" />
<circle cx="1094.07" cy="335.185" r="2" fill="red" />
<circle cx="856.78" cy="400" r="2" fill="red" />
<circle cx="785.593" cy="425.926" r="2" fill="red" />
<circle cx="785.593" cy="400" r="2" fill="red" />
<circle cx="714.407" cy="425.926" r="2" fill="red" />
<circle cx="880.508" cy="412.963" r="2" fill="red" />
<circle cx="809.322" cy="335.185" r="2" fill="red" />
<circle cx="738.136" cy="335.185" r="2" fill="red" />
<circle cx="904.237" cy="322.222" r="2" fill="red" />
<circle cx="761.864" cy="361.111" r="2" fill="red" />
<circle cx="927.966" cy="348.148" r="2" fill="red" />
<circle cx="856.78" cy="361.111" r="2" fill="red" />
<circle cx="856.78" cy="374.074" r="2" fill="red" />
<circle cx="856.78" cy="348.148" r="2" fill="red" />
<circle cx="785.593" cy="374.074" r="2" fill="red" />
<circle cx="951.695" cy="361.111" r="2" fill="red" />
<circle cx="738.136" cy="348.148" r="2" fill="red" />
<circle cx="904.237" cy="335.185" r="2" fill="red" />
<circle cx="833.051" cy="361.111" r="2" fill="red" />
<circle cx="833.051" cy="335.185" r="2" fill="red" />
<circle cx="761.864" cy="361.111" r="2" fill="red" />
<circle cx="927.966" cy="348.148" r="2" fill="red" />
<circle cx="880.508" cy="387.037" r="2" fill="red" />
<circle cx="856.78" cy="361.111" r="2" fill="red" />
<circle cx="785.593" cy="387.037" r="2" fill="red" />
<circle cx="951.695" cy="374.074" r="2" fill="red" />
<circle cx="951.695" cy="348.148" r="2" fill="red" />
<circle cx="927.966" cy="335.185" r="2" fill="red" />
<circle cx="951.695" cy="361.111" r="2" fill="red" />
<circle cx="880.508" cy="361.111" r="2" fill="red" />
<circle cx="1046.61" cy="348.148" r="2" fill="red" />
<circle cx="975.424" cy="374.074" r="2" fill="red" />
<circle cx="999.153" cy="283.333" r="2" fill="red" />
<circle cx="809.322" cy="387.037" r="2" fill="red" />
<circle cx="1022.88" cy="309.259" r="2" fill="red" />
<circle cx="951.695" cy="309.259" r="2" fill="red" />
<circle cx="1117.8" cy="296.296" r="2" fill="red" />
<circle cx="1046.61" cy="322.222" r="2" fill="red" />
<circle cx="927.966" cy="296.296" r="2" fill="red" />
<circle cx="1094.07" cy="283.333" r="2" fill="red" />
<circle cx="1022.88" cy="309.259" r="2" fill="red" />
<circle cx="951.695" cy="322.222" r="2" fill="red" />
<circle cx="1117.8" cy="309.259" r="2" fill="red" />
<circle cx="1046.61" cy="335.185" r="2" fill="red" />
<circle cx="904.237" cy="400" r="2" fill="red" />
<circle cx="1046.61" cy="309.259" r="2" fill="red" />
<circle cx="975.424" cy="335.185" r="2" fill="red" />
<circle cx="1141.53" cy="322.222" r="2" fill="red" />
<circle cx="809.322" cy="348.148" r="2" fill="red" />
<circle cx="833.051" cy="374.074" r="2" fill="red" />
<circle cx="761.864" cy="374.074" r="2" fill="red" />
<circle cx="927.966" cy="361.111" r="2" fill="red" />
<circle cx="856.78" cy="387.037" r="2" fill="red" />
<circle cx="809.322" cy="361.111" r="2" fill="red" />
<circle cx="738.136" cy="361.111" r="2" fill="red" />
<circle cx="927.966" cy="322.222" r="2" fill="red" />
<circle cx="904.237" cy="348.148" r="2" fill="red" />
<circle cx="833.051" cy="374.074" r="2" fill="red" />
<circle cx="927.966" cy="374.074" r="2" fill="red" />
<circle cx="856.78" cy="400" r="2" fill="red" />
<circle cx="856.78" cy="374.074" r="2" fill="red" />
<circle cx="785.593" cy="400" r="2" fill="red" />
<circle cx="951.695" cy="387.037" r="2" fill="red" />
<circle cx="880.508" cy="309.259" r="2" fill="red" />
<circle cx="809.322" cy="309.259" r="2" fill="red" />
<circle cx="975.424" cy="296.296" r="2" fill="red" />
<circle cx="904.237" cy="412.963" r="2" fill="red" />
<circle cx="856.78" cy="322.222" r="2" fill="red" />
<circle cx="833.051" cy="335.185" r="2" fill="red" />
<circle cx="999.153" cy="322.222" r="2" fill="red" />
<circle cx="927.966" cy="348.148" r="2" fill="red" />
<circle cx="927.966" cy="322.222" r="2" fill="red" />
<circle cx="856.78" cy="348.148" r="2" fill="red" />
<circle cx="1022.88" cy="335.185" r="2" fill="red" />
<circle cx="809.322" cy="322.222" r="2" fill="red" />
<circle cx="975.424" cy="309.259" r="2" fill="red" />
<circle cx="904.237" cy="335.185" r="2" fill="red" />
<circle cx="904.237" cy="309.259" r="2" fill="red" />
<circle cx="951.695" cy="335.185" r="2" fill="red" />
<circle cx="833.051" cy="335.185" r="2" fill="red" />
<circle cx="999.153" cy="322.222" r="2" fill="red" />
<circle cx="927.966" cy="335.185" r="2" fill="red" />
<circle cx="856.78" cy="361.111" r="2" fill="red" />
<circle cx="1022.88" cy="348.148" r="2" fill="red" />
<circle cx="833.051" cy="283.333" r="2" fill="red" />
<circle cx="856.78" cy="309.259" r="2" fill="red" />
<circle cx="785.593" cy="309.259" r="2" fill="red" />
<circle cx="951.695" cy="296.296" r="2" fill="red" />
<circle cx="880.508" cy="322.222" r="2" fill="red" />
<circle cx="880.508" cy="348.148" r="2" fill="red" />
<circle cx="761.864" cy="296.296" r="2" fill="red" />
<circle cx="927.966" cy="283.333" r="2" fill="red" />
<circle cx="856.78" cy="309.259" r="2" fill="red" />
<circle cx="951.695" cy="309.259" r="2" fill="red" />
<circle cx="880.508" cy="335.185" r="2" fill="red" />
<circle cx="880.508" cy="309.259" r="2" fill="red" />
<circle cx="809.322" cy="335.185" r="2" fill="red" />
<circle cx="975.424" cy="322.222" r="2" fill="red" />
<circle cx="833.051" cy="244.444" r="2" fill="red" />
<circle cx="999.153" cy="231.481" r="2" fill="red" />
<circle cx="975.424" cy="361.111" r="2" fill="red" />
<circle cx="856.78" cy="270.37" r="2" fill="red" />
<circle cx="1022.88" cy="257.407" r="2" fill="red" />
<circle cx="951.695" cy="283.333" r="2" fill="red" />
<circle cx="951.695" cy="257.407" r="2" fill="red" />
<circle cx="880.508" cy="283.333" r="2" fill="red" />
<circle cx="1046.61" cy="270.37" r="2" fill="red" />
<circle cx="927.966" cy="244.444" r="2" fill="red" />
<circle cx="856.78" cy="270.37" r="2" fill="red" />
<circle cx="1022.88" cy="257.407" r="2" fill="red" />
<circle cx="951.695" cy="270.37" r="2" fill="red" />
<circle cx="904.237" cy="361.111" r="2" fill="red" />
<circle cx="880.508" cy="296.296" r="2" fill="red" />
<circle cx="1046.61" cy="283.333" r="2" fill="red" />
<circle cx="714.407" cy="309.259" r="2" fill="red" />
<circle cx="643.22" cy="309.259" r="2" fill="red" />
<circle cx="809.322" cy="296.296" r="2" fill="red" />
<circle cx="833.051" cy="322.222" r="2" fill="red" />
<circle cx="761.864" cy="348.148" r="2" fill="red" />
<circle cx="761.864" cy="322.222" r="2" fill="red" />
<circle cx="690.678" cy="348.148" r="2" fill="red" />
<circle cx="856.78" cy="335.185" r="2" fill="red" />
<circle cx="880.508" cy="296.296" r="2" fill="red" />
<circle cx="809.322" cy="309.259" r="2" fill="red" />
<circle cx="738.136" cy="335.185" r="2" fill="red" />
<circle cx="738.136" cy="309.259" r="2" fill="red" />
<circle cx="666.949" cy="335.185" r="2" fill="red" />
<circle cx="833.051" cy="322.222" r="2" fill="red" />
<circle cx="856.78" cy="348.148" r="2" fill="red" />
<circle cx="714.407" cy="270.37" r="2" fill="red" />
<circle cx="880.508" cy="257.407" r="2" fill="red" />
<circle cx="809.322" cy="257.407" r="2" fill="red" />
<circle cx="833.051" cy="283.333" r="2" fill="red" />
<circle cx="904.237" cy="322.222" r="2" fill="red" />
<circle cx="761.864" cy="309.259" r="2" fill="red" />
<circle cx="927.966" cy="296.296" r="2" fill="red" />
<circle cx="809.322" cy="270.37" r="2" fill="red" />
<circle cx="738.136" cy="296.296" r="2" fill="red" />
<circle cx="904.237" cy="283.333" r="2" fill="red" />
<circle cx="951.695" cy="348.148" r="2" fill="red" />
<circle cx="975.424" cy="374.074" r="2" fill="red" />
<circle cx="904.237" cy="374.074" r="2" fill="red" />
<circle cx="1070.34" cy="361.111" r="2" fill="red" />
<circle cx="999.153" cy="387.037" r="2" fill="red" />
<circle cx="833.051" cy="322.222" r="2" fill="red" />
<circle cx="880.508" cy="361.111" r="2" fill="red" />
<circle cx="1046.61" cy="348.148" r="2" fill="red" />
<circle cx="975.424" cy="374.074" r="2" fill="red" />
<circle cx="904.237" cy="387.037" r="2" fill="red" />
<circle cx="1070.34" cy="374.074" r="2" fill="red" />
<circle cx="999.153" cy="400" r="2" fill="red" />
<circle cx="999.153" cy="374.074" r="2" fill="red" />
<circle cx="927.966" cy="400" r="2" fill="red" />
<circle cx="1094.07" cy="387.037" r="2" fill="red" />
<circle cx="833.051" cy="374.074" r="2" fill="red" />
<circle cx="999.153" cy="309.259" r="2" fill="red" />
<circle cx="761.864" cy="374.074" r="2" fill="red" />
<circle cx="927.966" cy="361.111" r="2" fill="red" />
<circle cx="785.593" cy="400" r="2" fill="red" />
<circle cx="951.695" cy="387.037" r="2" fill="red" />
<circle cx="880.508" cy="412.963" r="2" fill="red" />
<circle cx="880.508" cy="387.037" r="2" fill="red" />
<circle cx="809.322" cy="412.963" r="2" fill="red" />
<circle cx="975.424" cy="400" r="2" fill="red" />
<circle cx="761.864" cy="387.037" r="2" fill="red" />
<circle cx="927.966" cy="374.074" r="2" fill="red" />
<circle cx="927.966" cy="335.185" r="2" fill="red" />
<circle cx="856.78" cy="400" r="2" fill="red" />
<circle cx="856.78" cy="374.074" r="2" fill="red" />
<circle cx="785.593" cy="400" r="2" fill="red" />
<circle cx="951.695" cy="387.037" r="2" fill="red" />
<circle cx="880.508" cy="400" r="2" fill="red" />
<circle cx="809.322" cy="425.926" r="2" fill="red" />
<circle cx="975.424" cy="412.963" r="2" fill="red" />
<circle cx="785.593" cy="348.148" r="2" fill="red" />
<circle cx="809.322" cy="374.074" r="2" fill="red" />
<circle cx="738.136" cy="374.074" r="2" fill="red" />
<circle cx="999.153" cy="425.926" r="2" fill="red" />
<circle cx="880.508" cy="257.407" r="2" fill="red" />
<circle cx="904.237" cy="361.111" r="2" fill="red" />
<circle cx="833.051" cy="387.037" r="2" fill="red" />
<circle cx="714.407" cy="361.111" r="2" fill="red" />
<circle cx="880.508" cy="348.148" r="2" fill="red" />
<circle cx="809.322" cy="374.074" r="2" fill="red" />
<circle cx="904.237" cy="374.074" r="2" fill="red" />
<circle cx="833.051" cy="400" r="2" fill="red" />
<circle cx="833.051" cy="374.074" r="2" fill="red" />
<circle cx="761.864" cy="400" r="2" fill="red" />
<circle cx="927.966" cy="387.037" r="2" fill="red" />
<circle cx="1046.61" cy="244.444" r="2" fill="red" />
<circle cx="785.593" cy="309.259" r="2" fill="red" />
<circle cx="951.695" cy="296.296" r="2" fill="red" />
<circle cx="809.322" cy="335.185" r="2" fill="red" />
<circle cx="975.424" cy="322.222" r="2" fill="red" />
<circle cx="904.237" cy="348.148" r="2" fill="red" />
<circle cx="904.237" cy="322.222" r="2" fill="red" />
<circle cx="833.051" cy="348.148" r="2" fill="red" />
<circle cx="999.153" cy="335.185" r="2" fill="red" />
<circle cx="880.508" cy="309.259" r="2" fill="red" />
<circle cx="809.322" cy="335.185" r="2" fill="red" />
<circle cx="975.424" cy="270.37" r="2" fill="red" />
<circle cx="975.424" cy="322.222" r="2" fill="red" />
<circle cx="904.237" cy="335.185" r="2" fill="red" />
<circle cx="833.051" cy="361.111" r="2" fill="red" />
<circle cx="999.153" cy="348.148" r="2" fill="red" />
<circle cx="666.949" cy="374.074" r="2" fill="red" />
<circle cx="595.763" cy="374.074" r="2" fill="red" />
<circle cx="761.864" cy="361.111" r="2" fill="red" />
<circle cx="785.593" cy="387.037" r="2" fill="red" />
<circle cx="714.407" cy="412.963" r="2" fill="red" />
<circle cx="714.407" cy="387.037" r="2" fill="red" />
<circle cx="904.237" cy="283.333" r="2" fill="red" />
<circle cx="643.22" cy="412.963" r="2" fill="red" />
<circle cx="809.322" cy="400" r="2" fill="red" />
<circle cx="761.864" cy="374.074" r="2" fill="red" />
<circle cx="690.678" cy="400" r="2" fill="red" />
<circle cx="690.678" cy="374.074" r="2" fill="red" />
<circle cx="619.492" cy="400" r="2" fill="red" />
<circle cx="785.593" cy="387.037" r="2" fill="red" />
<circle cx="809.322" cy="412.963" r="2" fill="red" />
<circle cx="666.949" cy="335.185" r="2" fill="red" />
<circle cx="833.051" cy="322.222" r="2" fill="red" />
<circle cx="1070.34" cy="270.37" r="2" fill="red" />
<circle cx="761.864" cy="322.222" r="2" fill="red" />
<circle cx="785.593" cy="348.148" r="2" fill="red" />
<circle cx="714.407" cy="374.074" r="2" fill="red" />
<circle cx="880.508" cy="361.111" r="2" fill="red" />
<circle cx="761.864" cy="335.185" r="2" fill="red" />
<circle cx="690.678" cy="361.111" r="2" fill="red" />
<circle cx="856.78" cy="348.148" r="2" fill="red" />
<circle cx="856.78" cy="322.222" r="2" fill="red" />
<circle cx="880.508" cy="348.148" r="2" fill="red" />
<circle cx="809.322" cy="348.148" r="2" fill="red" />
<circle cx="999.153" cy="296.296" r="2" fill="red" />
<circle cx="975.424" cy="335.185" r="2" fill="red" />
<circle cx="904.237" cy="361.111" r="2" fill="red" />
<circle cx="785.593" cy="335.185" r="2" fill="red" />
<circle cx="951.695" cy="322.222" r="2" fill="red" />
<circle cx="880.508" cy="348.148" r="2" fill="red" />
<circle cx="975.424" cy="348.148" r="2" fill="red" />
<circle cx="904.237" cy="374.074" r="2" fill="red" />
<circle cx="904.237" cy="348.148" r="2" fill="red" />
<circle cx="833.051" cy="374.074" r="2" fill="red" />
<circle cx="999.153" cy="361.111" r="2" fill="red" />
<circle cx="999.153" cy="270.37" r="2" fill="red" />
<circle cx="856.78" cy="283.333" r="2" fill="red" />
<circle cx="1022.88" cy="270.37" r="2" fill="red" />
<circle cx="880.508" cy="309.259" r="2" fill="red" />
<circle cx="1046.61" cy="296.296" r="2" fill="red" />
<circle cx="975.424" cy="322.222" r="2" fill="red" />
<circle cx="975.424" cy="296.296" r="2" fill="red" />
<circle cx="904.237" cy="322.222" r="2" fill="red" />
<circle cx="1070.34" cy="309.259" r="2" fill="red" />
<circle cx="951.695" cy="283.333" r="2" fill="red" />
<circle cx="880.508" cy="309.259" r="2" fill="red" />
<circle cx="927.966" cy="296.296" r="2" fill="red" />
<circle cx="1046.61" cy="296.296" r="2" fill="red" />
<circle cx="975.424" cy="309.259" r="2" fill="red" />
<circle cx="904.237" cy="335.185" r="2" fill="red" />
<circle cx="1070.34" cy="322.222" r="2" fill="red" />
<circle cx="738.136" cy="348.148" r="2" fill="red" />
<circle cx="666.949" cy="348.148" r="2" fill="red" />
<circle cx="833.051" cy="335.185" r="2" fill="red" />
<circle cx="856.78" cy="361.111" r="2" fill="red" />
<circle cx="785.593" cy="387.037" r="2" fill="red" />
<circle cx="785.593" cy="361.111" r="2" fill="red" />
<circle cx="1094.07" cy="283.333" r="2" fill="red" />
<circle cx="714.407" cy="387.037" r="2" fill="red" />
<circle cx="880.508" cy="374.074" r="2" fill="red" />
<circle cx="833.051" cy="348.148" r="2" fill="red" />
<circle cx="761.864" cy="374.074" r="2" fill="red" />
<circle cx="761.864" cy="348.148" r="2" fill="red" />
<circle cx="690.678" cy="374.074" r="2" fill="red" />
<circle cx="856.78" cy="361.111" r="2" fill="red" />
<circle cx="880.508" cy="387.037" r="2" fill="red" />
<circle cx="738.136" cy="309.259" r="2" fill="red" />
<circle cx="904.237" cy="296.296" r="2" fill="red" />
<circle cx="761.864" cy="322.222" r="2" fill="red" />
<circle cx="833.051" cy="296.296" r="2" fill="red" />
<circle cx="856.78" cy="322.222" r="2" fill="red" />
<circle cx="785.593" cy="348.148" r="2" fill="red" />
<circle cx="951.695" cy="335.185" r="2" fill="red" />
<circle cx="833.051" cy="309.259" r="2" fill="red" />
<circle cx="761.864" cy="335.185" r="2" fill="red" />
<circle cx="927.966" cy="322.222" r="2" fill="red" />
<circle cx="690.678" cy="283.333" r="2" fill="red" />
<circle cx="856.78" cy="270.37" r="2" fill="red" />
<circle cx="880.508" cy="296.296" r="2" fill="red" />
<circle cx="785.593" cy="387.037" r="2" fill="red" />
<circle cx="690.678" cy="322.222" r="2" fill="red" />
<circle cx="809.322" cy="322.222" r="2" fill="red" />
<circle cx="809.322" cy="296.296" r="2" fill="red" />
<circle cx="738.136" cy="322.222" r="2" fill="red" />
<circle cx="904.237" cy="309.259" r="2" fill="red" />
<circle cx="785.593" cy="283.333" r="2" fill="red" />
<circle cx="714.407" cy="309.259" r="2" fill="red" />
<circle cx="880.508" cy="296.296" r="2" fill="red" />
<circle cx="904.237" cy="322.222" r="2" fill="red" />
<circle cx="856.78" cy="231.481" r="2" fill="red" />
<circle cx="880.508" cy="257.407" r="2" fill="red" />
<circle cx="856.78" cy="309.259" r="2" fill="red" />
<circle cx="809.322" cy="283.333" r="2" fill="red" />
<circle cx="975.424" cy="270.37" r="2" fill="red" />
<circle cx="738.136" cy="296.296" r="2" fill="red" />
<circle cx="666.949" cy="296.296" r="2" fill="red" />
<circle cx="785.593" cy="335.185" r="2" fill="red" />
<circle cx="761.864" cy="322.222" r="2" fill="red" />
<circle cx="738.136" cy="257.407" r="2" fill="red" />
<circle cx="785.593" cy="335.185" r="2" fill="red" />
<circle cx="880.508" cy="335.185" r="2" fill="red" />
<circle cx="809.322" cy="361.111" r="2" fill="red" />
<circle cx="809.322" cy="335.185" r="2" fill="red" />
<circle cx="738.136" cy="361.111" r="2" fill="red" />
<circle cx="904.237" cy="348.148" r="2" fill="red" />
<circle cx="761.864" cy="283.333" r="2" fill="red" />
<circle cx="927.966" cy="270.37" r="2" fill="red" />
<circle cx="809.322" cy="412.963" r="2" fill="red" />
<circle cx="856.78" cy="296.296" r="2" fill="red" />
<circle cx="856.78" cy="270.37" r="2" fill="red" />
<circle cx="785.593" cy="296.296" r="2" fill="red" />
<circle cx="951.695" cy="283.333" r="2" fill="red" />
<circle cx="880.508" cy="296.296" r="2" fill="red" />
<circle cx="809.322" cy="322.222" r="2" fill="red" />
<circle cx="975.424" cy="309.259" r="2" fill="red" />
<circle cx="1022.88" cy="374.074" r="2" fill="red" />
<circle cx="999.153" cy="361.111" r="2" fill="red" />
<circle cx="1022.88" cy="387.037" r="2" fill="red" />
<circle cx="738.136" cy="412.963" r="2" fill="red" />
<circle cx="951.695" cy="387.037" r="2" fill="red" />
<circle cx="1046.61" cy="400" r="2" fill="red" />
<circle cx="880.508" cy="374.074" r="2" fill="red" />
<circle cx="904.237" cy="400" r="2" fill="red" />
<circle cx="833.051" cy="400" r="2" fill="red" />
<circle cx="927.966" cy="412.963" r="2" fill="red" />
<circle cx="880.508" cy="387.037" r="2" fill="red" />
<circle cx="809.322" cy="387.037" r="2" fill="red" />
<circle cx="904.237" cy="400" r="2" fill="red" />
<circle cx="833.051" cy="412.963" r="2" fill="red" />
<circle cx="904.237" cy="400" r="2" fill="red" />
<circle cx="927.966" cy="425.926" r="2" fill="red" />
<circle cx="856.78" cy="425.926" r="2" fill="red" />
<circle cx="856.78" cy="374.074" r="2" fill="red" />
<circle cx="833.051" cy="361.111" r="2" fill="red" />
<circle cx="856.78" cy="387.037" r="2" fill="red" />
<circle cx="785.593" cy="387.037" r="2" fill="red" />
<circle cx="951.695" cy="374.074" r="2" fill="red" />
<circle cx="880.508" cy="400" r="2" fill="red" />
<circle cx="904.237" cy="309.259" r="2" fill="red" />
<circle cx="927.966" cy="335.185" r="2" fill="red" />
<circle cx="833.051" cy="425.926" r="2" fill="red" />
<circle cx="856.78" cy="335.185" r="2" fill="red" />
<circle cx="1022.88" cy="322.222" r="2" fill="red" />
<circle cx="951.695" cy="348.148" r="2" fill="red" />
<circle cx="833.051" cy="322.222" r="2" fill="red" />
<circle cx="999.153" cy="309.259" r="2" fill="red" />
<circle cx="927.966" cy="335.185" r="2" fill="red" />
<circle cx="856.78" cy="348.148" r="2" fill="red" />
<circle cx="1022.88" cy="335.185" r="2" fill="red" />
<circle cx="951.695" cy="361.111" r="2" fill="red" />
<circle cx="951.695" cy="335.185" r="2" fill="red" />
<circle cx="643.22" cy="412.963" r="3" fill="green" />
<text x="648.22" y="417.963" fill="grey" >25 ; 26</text>
<circle cx="690.678" cy="425.926" r="3" fill="green" />
<circle cx="619.492" cy="400" r="3" fill="green" />
<circle cx="595.763" cy="374.074" r="3" fill="green" />


</svg>
